<?xml version="1.0" encoding="UTF-8" standalone="no"?>
<svg
   xmlns:dc="http://purl.org/dc/elements/1.1/"
   xmlns:cc="http://creativecommons.org/ns#"
   xmlns:rdf="http://www.w3.org/1999/02/22-rdf-syntax-ns#"
   xmlns:svg="http://www.w3.org/2000/svg"
   xmlns="http://www.w3.org/2000/svg"
   style="fill:#000000"
   xml:space="preserve"
   viewBox="0 0 41.13795 41.13795"
   height="60"
   width="60"
   id="Capa_1"
   version="1.1"><metadata
   id="metadata21"><rdf:RDF><cc:Work
       rdf:about=""><dc:format>image/svg+xml</dc:format><dc:type
         rdf:resource="http://purl.org/dc/dcmitype/StillImage" /><dc:title></dc:title></cc:Work></rdf:RDF></metadata><defs
   id="defs19" />

<g
   transform="translate(-6.8563253,-6.8563259)"
   id="g4546"><g
     id="g14"
     style="fill:#ffce00;fill-opacity:1"
     transform="matrix(0.05292138,0,0,0.05292138,12.911466,12.911482)">
	<g
   id="g12"
   style="fill:#ffce00;fill-opacity:1">
		<path
   d="m 524.149,325.887 c -26.297,-1.912 -109.491,-11.475 -111.882,-11.475 0.479,0 -0.956,0 -3.347,0 -4.303,0 -13.388,0.956 -28.688,8.606 -5.259,2.868 -20.56,10.04 -41.118,20.559 0.478,0 0.956,0 1.434,0 6.694,0 13.866,1.435 17.691,6.216 L 400.313,328.277 508.37,338.318 225.32,535.305 50.327,509.009 277.915,391.868 c 0,0 0.478,-13.865 7.172,-19.125 -94.191,47.813 -225.676,116.185 -252.929,130.528 -11.475,5.737 -10.041,15.778 0,17.69 14.822,2.869 181.209,26.775 185.034,27.253 13.866,1.913 23.428,-6.216 23.906,-6.693 L 527.017,342.143 c 4.781,-3.348 6.216,-4.781 6.216,-9.562 0.956,-3.825 -3.346,-6.216 -9.084,-6.694 z"
   id="path2"
   style="fill:#ffce00;fill-opacity:1" />
		<path
   d="m 363.021,401.909 c 0,1.434 -0.957,3.347 -2.391,3.824 l -54.507,34.426 c -1.912,0.956 -3.825,0.956 -4.781,0.478 -0.956,-0.478 -21.993,-6.693 -21.993,-6.693 -2.391,-0.956 -3.348,-4.304 -3.348,-6.216 l 1.913,-25.341 -197.943,101.841 143.438,21.516 260.101,-180.731 -80.325,-7.172 -40.162,21.038 v 43.03 z"
   id="path4"
   style="fill:#ffce00;fill-opacity:1" />
		<path
   d="m 291.303,358.878 4.303,5.259 c 4.781,-2.391 10.519,-5.259 16.256,-8.606 L 308.038,350.272 302.3,343.1 31.68,3.631 C 28.333,-0.673 23.074,-1.15 18.77,2.196 14.466,5.542 13.989,10.802 17.336,15.105 l 268.707,336.601 z"
   id="path6"
   style="fill:#ffce00;fill-opacity:1" />
		<path
   d="m 336.246,353.618 c -1.912,0.956 -35.381,19.125 -36.815,19.604 -8.606,4.781 -10.519,15.3 -10.997,19.125 -0.479,3.824 -3.347,33.946 -3.347,33.946 l 13.865,4.304 c 0,0 0,-40.641 0,-41.598 0,-0.956 0.956,-10.04 5.26,-12.431 3.347,-1.913 40.162,-21.038 40.641,-21.516 -0.479,-1.434 -1.914,-4.303 -8.607,-1.434 z"
   id="path8"
   style="fill:#ffce00;fill-opacity:1" />
		<path
   d="m 352.024,359.834 c -1.913,0.956 -39.206,20.56 -41.597,22.472 -2.391,1.912 -2.391,5.737 -2.391,6.693 v 39.685 l 45.899,-29.165 v -36.338 c 0,-1.435 0,-2.869 -0.478,-3.347 0.002,-0.479 -0.477,-0.479 -1.433,0 z"
   id="path10"
   style="fill:#ffce00;fill-opacity:1" />
	</g>
</g><circle
     style="fill:none;fill-opacity:1;stroke:#ffce00;stroke-width:1.35823023;stroke-miterlimit:4;stroke-dasharray:none;stroke-opacity:1"
     id="path4536"
     cx="27.425301"
     cy="27.425301"
     r="19.88986" /></g></svg>