<?xml version="1.0" encoding="utf-8"?>
<!-- Generator: Adobe Illustrator 26.2.1, SVG Export Plug-In . SVG Version: 6.00 Build 0)  -->
<svg version="1.1" id="Layer_1" xmlns="http://www.w3.org/2000/svg" xmlns:xlink="http://www.w3.org/1999/xlink" x="0px" y="0px"
	 viewBox="0 0 362.8 177.4" style="enable-background:new 0 0 362.8 177.4;" xml:space="preserve">
<style type="text/css">
	.st0{fill-rule:evenodd;clip-rule:evenodd;}
</style>
<g id="Layer_x0020_1">
	<g id="_892993328">
		<path class="st0" d="M244.5,135.9v0.2c-7.3,0-13.6-2.5-18.7-7.8c-5-5.2-7.8-11.3-7.8-18.7V82.9h39.3c11.3,0,20.6-9.2,20.6-20.6
			V41.6h-59.8V0h-41.4v41.6h-21.9V0h-41.3v41.6H67.7c-9.4,0-18.3,1.7-26.5,5.2c-8.2,3.6-15.5,8.4-21.6,14.5
			C13.5,67.4,8.7,74.5,5.1,82.9c-3.6,8.2-5.2,17-5.2,26.5s1.7,18.3,5.2,26.5s8.4,15.5,14.5,21.6c6.1,6.1,13.2,10.9,21.6,14.5
			c8.2,3.6,17,5.2,26.5,5.2h21c8.8-0.2,17-1.9,24.8-5.2c8.2-3.6,15.5-8.4,21.6-14.5c6.1-6.1,10.9-13.2,14.5-21.6
			c3.6-8.2,5.2-17,5.2-26.5V83h21.9v26.5c0,9.4,1.7,18.3,5.2,26.5c3.6,8.2,8.4,15.5,14.5,21.6c6.1,6.1,13.2,10.9,21.6,14.5
			c8.2,3.6,17,5.2,26.5,5.2h55v-41.4H244.5z M113.7,109.6c-0.2,7.4-2.7,13.4-7.8,18.7c-4.8,4.8-10.5,7.3-17,7.8h-21
			c-7.4,0-13.6-2.5-18.7-7.8c-5-5.2-7.8-11.3-7.8-18.7c0-7.4,2.6-13.6,7.8-18.7c5.2-5,11.3-7.8,18.7-7.8h45.8V109.6z"/>
		<path class="st0" d="M356.6,68.4c3.8,3.8,6.1,9,6.1,14.8v73.5c0,11.3-9.2,20.7-20.8,20.7h-20.8V83.2c0-11.6,9.2-20.8,20.8-20.8
			C347.7,62.4,352.8,64.7,356.6,68.4z"/>
		
			<ellipse transform="matrix(0.2298 -0.9732 0.9732 0.2298 243.104 348.775)" class="st0" cx="341.9" cy="20.8" rx="20.8" ry="20.8"/>
	</g>
</g>
</svg>
